<svg xmlns="http://www.w3.org/2000/svg" width="64" height="58" viewBox="0 0 64 58">
  <path fill="#0070C9" d="M42,10.7121735 L60.4828177,19.1134542 C62.6247834,20.087075 64,22.2227922 64,24.5756531 L64,45 C64,48.3137085 61.3137085,51 58,51 L54,51 L54,47 L58,47 C59.1045695,47 60,46.1045695 60,45 L60,24.5756531 C60,23.7913661 59.5415944,23.0794604 58.8276059,22.7549201 L38,13.2878265 L38,6 C38,4.8954305 37.1045695,4 36,4 L5.99999999,4 C4.89543049,4 3.99999999,4.8954305 3.99999999,6 L3.99999999,45 C3.99999999,46.1045695 4.89543049,47 5.99999999,47 L10,47 L10,51 L5.99999999,51 C2.68629149,51 -1.07807443e-08,48.3137085 -1.16183401e-08,45 L-1.07283995e-08,6 C-1.07283999e-08,2.6862915 2.68629149,-1.04921529e-09 5.99999999,-1.04921583e-09 L36,1.00271857e-10 C39.3137085,2.00515399e-10 42,2.6862915 42,6 L42,10.7121735 Z M40,47 L40,51 L24,51 L24,47 L40,47 Z M17,54 C19.7614237,54 22,51.7614237 22,49 C22,46.2385763 19.7614237,44 17,44 C14.2385763,44 12,46.2385763 12,49 C12,51.7614237 14.2385763,54 17,54 Z M17,58 C12.0294373,58 8,53.9705627 8,49 C8,44.0294373 12.0294373,40 17,40 C21.9705627,40 26,44.0294373 26,49 C26,53.9705627 21.9705627,58 17,58 Z M47,54 C49.7614237,54 52,51.7614237 52,49 C52,46.2385763 49.7614237,44 47,44 C44.2385763,44 42,46.2385763 42,49 C42,51.7614237 44.2385763,54 47,54 Z M47,58 C42.0294373,58 38,53.9705627 38,49 C38,44.0294373 42.0294373,40 47,40 C51.9705627,40 56,44.0294373 56,49 C56,53.9705627 51.9705627,58 47,58 Z M39,12 C39,11.4477153 39.4477153,11 40,11 C40.5522847,11 41,11.4477153 41,12 L41,25 C41,26.6568542 42.3431458,28 44,28 L62,28 C62.5522847,28 63,28.4477153 63,29 C63,29.5522847 62.5522847,30 62,30 L44,30 C41.2385763,30 39,27.7614237 39,25 L39,12 Z"/>
</svg>
