<?xml version="1.0" encoding="UTF-8"?>
<svg width="24px" height="24px" viewBox="0 0 24 24" version="1.1" xmlns="http://www.w3.org/2000/svg" xmlns:xlink="http://www.w3.org/1999/xlink">
    <!-- Generator: Sketch 48.2 (47327) - http://www.bohemiancoding.com/sketch -->
    <title>Group 2</title>
    <desc>Created with Sketch.</desc>
    <defs></defs>
    <g id="店铺设置标题栏" stroke="none" stroke-width="1" fill="none" fill-rule="evenodd" transform="translate(-15.000000, -14.000000)">
        <g id="Group-13" fill="#FFFFFF" fill-rule="nonzero">
            <g id="Group-2" transform="translate(15.000000, 14.000000)">
                <path d="M12.7040237,0.00687643115 L12.7040237,8.12903512 C12.7040237,9.19228701 11.4336213,10.5677457 10.1632189,10.5677457 L8.46934911,10.5677457 L8.46934911,17.7771376 C7.47969825,17.2652926 6.6145031,16.560312 5.92854438,15.7147752 L5.92854438,10.5677457 C5.92854438,9.22088302 7.06610141,8.12903512 8.46934911,8.12903512 L10.1632189,8.12903512 L10.1632189,2.66023053 C5.80219306,3.58813219 2.54080473,7.32205155 2.54080473,11.7871009 C2.54080473,15.6519213 4.98428377,18.9689686 8.46934911,20.3926807 L8.46934911,22.9955533 C3.55272001,21.4564162 0,17.0199786 0,11.7871009 C0,5.27726484 5.4981923,0 12.2805562,0 C12.4222856,0 12.5634543,0.00230444643 12.7040237,0.00687643115 Z M10.5225093,23.3230412 L10.5225093,15.1036281 C10.5225093,14.0276448 11.8378229,12.6357165 13.1531366,12.6357165 L14.9068881,12.6357165 L14.9068881,5.33999959 C15.9315251,5.85797336 16.8273067,6.57139539 17.5375154,7.42705661 L17.5375154,12.6357165 C17.5375154,13.9987064 16.3597435,15.1036281 14.9068881,15.1036281 L13.1531366,15.1036281 L13.1531366,20.6379159 C17.6683335,19.6989036 21.0450185,15.9202744 21.0450185,11.4017607 C21.0450185,7.49066309 18.5151576,4.13389761 14.9068881,2.69313808 L14.9068881,0.0590987636 C19.99733,1.61666542 23.6756458,6.10622477 23.6756458,11.4017607 C23.6756458,17.9895453 17.9830813,23.3299999 10.9609471,23.3299999 C10.8142073,23.3299999 10.6680481,23.3276679 10.5225093,23.3230412 Z" id="Combined-Shape"></path>
            </g>
        </g>
    </g>
</svg>