<svg xmlns="http://www.w3.org/2000/svg" width="48" height="48" viewBox="0 0 48 48">
  <g fill="none" fill-rule="evenodd">
    <rect width="48" height="48"/>
    <path fill="#333" fill-rule="nonzero" d="M13,2 C11.8954305,2 11,2.8954305 11,4 L11,44 C11,45.1045695 11.8954305,46 13,46 L35,46 C36.1045695,46 37,45.1045695 37,44 L37,4 C37,2.8954305 36.1045695,2 35,2 L13,2 Z M13,0 L35,0 C37.209139,0 39,1.790861 39,4 L39,44 C39,46.209139 37.209139,48 35,48 L13,48 C10.790861,48 9,46.209139 9,44 L9,4 C9,1.790861 10.790861,0 13,0 Z"/>
    <rect width="22" height="16" x="13" y="18" fill="#FBB03B"/>
    <rect width="6" height="2" x="21" y="3" fill="#333" rx="1"/>
    <rect width="28" height="2" x="10" y="6" fill="#333"/>
    <path fill="#333" fill-rule="nonzero" d="M24,43 C24.5522847,43 25,42.5522847 25,42 C25,41.4477153 24.5522847,41 24,41 C23.4477153,41 23,41.4477153 23,42 C23,42.5522847 23.4477153,43 24,43 Z M24,45 C22.3431458,45 21,43.6568542 21,42 C21,40.3431458 22.3431458,39 24,39 C25.6568542,39 27,40.3431458 27,42 C27,43.6568542 25.6568542,45 24,45 Z"/>
    <rect width="28" height="2" x="10" y="36" fill="#333"/>
    <path fill="#333" fill-rule="nonzero" d="M29,18 C29,15.2385763 26.7614237,13 24,13 C21.2385763,13 19,15.2385763 19,18 L19,22 L17,22 L17,18 C17,14.1340068 20.1340068,11 24,11 C27.8659932,11 31,14.1340068 31,18 L31,22 L29,22 L29,18 Z"/>
  </g>
</svg>
