<svg xmlns="http://www.w3.org/2000/svg" width="48" height="48" viewBox="0 0 48 48">
  <g fill="none" fill-rule="evenodd" transform="translate(-1 -1)">
    <rect width="48" height="48" x="1" y="1"/>
    <circle cx="25" cy="25" r="16" stroke="#333" stroke-width="2"/>
    <path fill="#333" d="M24,1 L26,1 L26,7 L24,7 L24,1 Z M31.4653513,1.86562661 L33.3674644,2.4836606 L31.5133624,8.1899997 L29.6112494,7.57196571 L31.4653513,1.86562661 Z M38.2978291,4.99580688 L39.915863,6.17137739 L36.3891515,11.0254794 L34.7711175,9.84990885 L38.2978291,4.99580688 Z M43.8286226,10.084137 L45.0041931,11.7021709 L40.1500912,15.2288825 L38.9745206,13.6108485 L43.8286226,10.084137 Z M47.5163394,16.6325356 L48.1343734,18.5346487 L42.4280343,20.3887506 L41.8100003,18.4866376 L47.5163394,16.6325356 Z M49,24 L49,26 L43,26 L43,24 L49,24 Z M48.1343734,31.4653513 L47.5163394,33.3674644 L41.8100003,31.5133624 L42.4280343,29.6112494 L48.1343734,31.4653513 Z M45.0041931,38.2978291 L43.8286226,39.915863 L38.9745206,36.3891515 L40.1500912,34.7711175 L45.0041931,38.2978291 Z M39.915863,43.8286226 L38.2978291,45.0041931 L34.7711175,40.1500912 L36.3891515,38.9745206 L39.915863,43.8286226 Z M33.3674644,47.5163394 L31.4653513,48.1343734 L29.6112494,42.4280343 L31.5133624,41.8100003 L33.3674644,47.5163394 Z M26,49 L24,49 L24,43 L26,43 L26,49 Z M18.5346487,48.1343734 L16.6325356,47.5163394 L18.4866376,41.8100003 L20.3887506,42.4280343 L18.5346487,48.1343734 Z M11.7021709,45.0041931 L10.084137,43.8286226 L13.6108485,38.9745206 L15.2288825,40.1500912 L11.7021709,45.0041931 Z M6.17137739,39.915863 L4.99580688,38.2978291 L9.84990885,34.7711175 L11.0254794,36.3891515 L6.17137739,39.915863 Z M2.4836606,33.3674644 L1.86562661,31.4653513 L7.57196571,29.6112494 L8.1899997,31.5133624 L2.4836606,33.3674644 Z M1,26 L1,24 L7,24 L7,26 L1,26 Z M1.86562661,18.5346487 L2.4836606,16.6325356 L8.1899997,18.4866376 L7.57196571,20.3887506 L1.86562661,18.5346487 Z M4.99580688,11.7021709 L6.17137739,10.084137 L11.0254794,13.6108485 L9.84990885,15.2288825 L4.99580688,11.7021709 Z M10.084137,6.17137739 L11.7021709,4.99580688 L15.2288825,9.84990885 L13.6108485,11.0254794 L10.084137,6.17137739 Z M16.6325356,2.4836606 L18.5346487,1.86562661 L20.3887506,7.57196571 L18.4866376,8.1899997 L16.6325356,2.4836606 Z"/>
    <path fill="#333" d="M24,4 L26,4 L26,7 L24,7 L24,4 Z M30.5383004,4.71879616 L32.4404134,5.33683015 L31.5133624,8.1899997 L29.6112494,7.57196571 L30.5383004,4.71879616 Z M36.5344733,7.42285787 L38.1525073,8.59842837 L36.3891515,11.0254794 L34.7711175,9.84990885 L36.5344733,7.42285787 Z M41.4015716,11.8474927 L42.5771421,13.4655267 L40.1500912,15.2288825 L38.9745206,13.6108485 L41.4015716,11.8474927 Z M44.6631698,17.5595866 L45.2812038,19.4616996 L42.4280343,20.3887506 L41.8100003,18.4866376 L44.6631698,17.5595866 Z M46,24 L46,26 L43,26 L43,24 L46,24 Z M45.2812038,30.5383004 L44.6631698,32.4404134 L41.8100003,31.5133624 L42.4280343,29.6112494 L45.2812038,30.5383004 Z M42.5771421,36.5344733 L41.4015716,38.1525073 L38.9745206,36.3891515 L40.1500912,34.7711175 L42.5771421,36.5344733 Z M38.1525073,41.4015716 L36.5344733,42.5771421 L34.7711175,40.1500912 L36.3891515,38.9745206 L38.1525073,41.4015716 Z M32.4404134,44.6631698 L30.5383004,45.2812038 L29.6112494,42.4280343 L31.5133624,41.8100003 L32.4404134,44.6631698 Z M26,46 L24,46 L24,43 L26,43 L26,46 Z M19.4616996,45.2812038 L17.5595866,44.6631698 L18.4866376,41.8100003 L20.3887506,42.4280343 L19.4616996,45.2812038 Z M13.4655267,42.5771421 L11.8474927,41.4015716 L13.6108485,38.9745206 L15.2288825,40.1500912 L13.4655267,42.5771421 Z M8.59842837,38.1525073 L7.42285787,36.5344733 L9.84990885,34.7711175 L11.0254794,36.3891515 L8.59842837,38.1525073 Z M5.33683015,32.4404134 L4.71879616,30.5383004 L7.57196571,29.6112494 L8.1899997,31.5133624 L5.33683015,32.4404134 Z M4,26 L4,24 L7,24 L7,26 L4,26 Z M4.71879616,19.4616996 L5.33683015,17.5595866 L8.1899997,18.4866376 L7.57196571,20.3887506 L4.71879616,19.4616996 Z M7.42285787,13.4655267 L8.59842837,11.8474927 L11.0254794,13.6108485 L9.84990885,15.2288825 L7.42285787,13.4655267 Z M11.8474927,8.59842837 L13.4655267,7.42285787 L15.2288825,9.84990885 L13.6108485,11.0254794 L11.8474927,8.59842837 Z M17.5595866,5.33683015 L19.4616996,4.71879616 L20.3887506,7.57196571 L18.4866376,8.1899997 L17.5595866,5.33683015 Z" transform="rotate(-9 25 25)"/>
    <circle cx="25" cy="25" r="12" fill="#FBB03B"/>
    <rect width="12" height="2" x="19" y="22" fill="#333"/>
    <rect width="2" height="12" x="24" y="22" fill="#333"/>
    <polygon fill="#333" fill-rule="nonzero" points="29.293 16.293 30.707 17.707 25 23.414 19.293 17.707 20.707 16.293 25 20.586"/>
    <rect width="12" height="2" x="19" y="26" fill="#333"/>
  </g>
</svg>
