<svg xmlns="http://www.w3.org/2000/svg" width="48" height="48" viewBox="0 0 48 48">
  <g fill="none" fill-rule="evenodd">
    <rect width="48" height="48"/>
    <path fill="#333" fill-rule="nonzero" d="M18,2 L18,4 L30,4 L30,2 L18,2 Z M16,0 L32,0 L32,6 L16,6 L16,0 Z"/>
    <polygon fill="#333" points="40 4 31 4 31 2 42 2 42 48 6 48 6 2 17 2 17 4 8 4 8 46 40 46"/>
    <circle cx="15" cy="13" r="5" fill="#FBB03B"/>
    <polygon fill="#333" fill-rule="nonzero" points="17 10.586 18.414 12 14 16.414 11.586 14 13 12.586 14 13.586"/>
    <circle cx="15" cy="25" r="5" fill="#FBB03B"/>
    <polygon fill="#333" fill-rule="nonzero" points="17 22.586 18.414 24 14 28.414 11.586 26 13 24.586 14 25.586"/>
    <circle cx="15" cy="37" r="5" fill="#FBB03B"/>
    <polygon fill="#333" fill-rule="nonzero" points="17 34.586 18.414 36 14 40.414 11.586 38 13 36.586 14 37.586"/>
    <rect width="16" height="2" x="22" y="10" fill="#333"/>
    <rect width="8" height="2" x="22" y="14" fill="#333"/>
    <rect width="6" height="2" x="32" y="14" fill="#333"/>
    <rect width="16" height="2" x="22" y="22" fill="#333"/>
    <rect width="8" height="2" x="22" y="26" fill="#333"/>
    <rect width="14" height="2" x="22" y="34" fill="#333"/>
    <rect width="4" height="2" x="22" y="38" fill="#333"/>
  </g>
</svg>
