<svg xmlns="http://www.w3.org/2000/svg" width="60" height="60" viewBox="0 0 60 60">
  <path fill="#0070C9" d="M14.5857864,50.2426407 C14.2107137,50.6177134 14,51.1264213 14,51.6568542 L14,64 C14,65.1045695 14.8954305,66 16,66 L28.3431458,66 C28.8735787,66 29.3822866,65.7892863 29.7573593,65.4142136 L64.7573593,30.4142136 C65.5384079,29.633165 65.5384079,28.366835 64.7573593,27.5857864 L52.4142136,15.2426407 C51.633165,14.4615921 50.366835,14.4615921 49.5857864,15.2426407 L14.5857864,50.2426407 Z M11.7573593,47.4142136 L46.7573593,12.4142136 C49.1005051,10.0710678 52.8994949,10.0710678 55.2426407,12.4142136 L67.5857864,24.7573593 C69.9289322,27.1005051 69.9289322,30.8994949 67.5857864,33.2426407 L32.5857864,68.2426407 C31.4605682,69.367859 29.9344447,70 28.3431458,70 L16,70 C12.6862915,70 10,67.3137085 10,64 L10,51.6568542 C10,50.0655553 10.632141,48.5394318 11.7573593,47.4142136 Z M23,60 C24.6568542,60 26,58.6568542 26,57 C26,55.3431458 24.6568542,54 23,54 C21.3431458,54 20,55.3431458 20,57 C20,58.6568542 21.3431458,60 23,60 Z M23,62 C20.2385763,62 18,59.7614237 18,57 C18,54.2385763 20.2385763,52 23,52 C25.7614237,52 28,54.2385763 28,57 C28,59.7614237 25.7614237,62 23,62 Z M47.0710678,31.5147186 L49.1923882,29.3933983 C49.5829124,29.002874 50.2160774,29.002874 50.6066017,29.3933983 C50.997126,29.7839226 50.997126,30.4170876 50.6066017,30.8076118 L48.4852814,32.9289322 L51.6672619,36.1109127 C51.862524,36.3061748 52.1791065,36.3061748 52.3743687,36.1109127 L54.1421356,34.3431458 C54.5326599,33.9526215 55.1658249,33.9526215 55.5563492,34.3431458 C55.9468735,34.73367 55.9468735,35.366835 55.5563492,35.7573593 L53.4350288,37.8786797 C52.6539803,38.6597282 51.3876503,38.6597282 50.6066017,37.8786797 L42.1213203,29.3933983 C41.3402718,28.6123497 41.3402718,27.3460197 42.1213203,26.5649712 L44.2426407,24.4436508 C44.633165,24.0531265 45.26633,24.0531265 45.6568542,24.4436508 C46.0473785,24.8341751 46.0473785,25.4673401 45.6568542,25.8578644 L43.8890873,27.6256313 C43.6938252,27.8208935 43.6938252,28.137476 43.8890873,28.3327381 L47.0710678,31.5147186 Z M30.1005051,42.8284271 C30.4910294,43.2189514 30.4910294,43.8521164 30.1005051,44.2426407 C29.7099808,44.633165 29.0768158,44.633165 28.6862915,44.2426407 L28.3327381,43.8890873 C28.137476,43.6938252 27.8208935,43.6938252 27.6256313,43.8890873 L26.9185245,44.5961941 C26.7232624,44.7914562 26.7232624,45.1080387 26.9185245,45.3033009 L29.7469517,48.131728 C29.9422138,48.3269901 30.2587963,48.3269901 30.4540585,48.131728 L31.5147186,47.0710678 C32.2957672,46.2900192 33.5620972,46.2900192 34.3431458,47.0710678 L37.8786797,50.6066017 C38.6597282,51.3876503 38.6597282,52.6539803 37.8786797,53.4350288 L36.4644661,54.8492424 C35.6834175,55.630291 34.4170876,55.630291 33.636039,54.8492424 L32.9289322,54.1421356 C32.5384079,53.7516113 32.5384079,53.1184464 32.9289322,52.7279221 C33.3194565,52.3373978 33.9526215,52.3373978 34.3431458,52.7279221 L34.6966991,53.0814755 C34.8919613,53.2767376 35.2085438,53.2767376 35.4038059,53.0814755 L36.1109127,52.3743687 C36.3061748,52.1791065 36.3061748,51.862524 36.1109127,51.6672619 L33.2824856,48.8388348 C33.0872234,48.6435726 32.7706409,48.6435726 32.5753788,48.8388348 L31.5147186,49.8994949 C30.73367,50.6805435 29.4673401,50.6805435 28.6862915,49.8994949 L25.1507576,46.363961 C24.369709,45.5829124 24.369709,44.3165825 25.1507576,43.5355339 L26.5649712,42.1213203 C27.3460197,41.3402718 28.6123497,41.3402718 29.3933983,42.1213203 L30.1005051,42.8284271 Z M35.7573593,34.3431458 C35.366835,33.9526215 35.366835,33.3194565 35.7573593,32.9289322 C36.1478836,32.5384079 36.7810486,32.5384079 37.1715729,32.9289322 L46.0104076,41.767767 C46.2056698,41.9630291 46.5222523,41.9630291 46.7175144,41.767767 L48.4852814,40 C48.8758057,39.6094757 49.5089706,39.6094757 49.8994949,40 C50.2900192,40.3905243 50.2900192,41.0236893 49.8994949,41.4142136 L47.7781746,43.5355339 C46.997126,44.3165825 45.7307961,44.3165825 44.9497475,43.5355339 L35.7573593,34.3431458 Z M40.7071068,44.9497475 L39.2928932,46.363961 L41.4142136,48.4852814 C41.8047379,48.8758057 41.8047379,49.5089706 41.4142136,49.8994949 C41.0236893,50.2900192 40.3905243,50.2900192 40,49.8994949 L30.8076118,40.7071068 C30.0265633,39.9260582 30.0265633,38.6597282 30.8076118,37.8786797 L32.2218254,36.4644661 C33.002874,35.6834175 34.2692039,35.6834175 35.0502525,36.4644661 L44.2426407,45.6568542 C44.633165,46.0473785 44.633165,46.6805435 44.2426407,47.0710678 C43.8521164,47.4615921 43.2189514,47.4615921 42.8284271,47.0710678 L40.7071068,44.9497475 Z M39.2928932,43.5355339 L33.9895924,38.232233 C33.7943302,38.0369709 33.4777477,38.0369709 33.2824856,38.232233 L32.5753788,38.9393398 C32.3801167,39.134602 32.3801167,39.4511845 32.5753788,39.6464466 L37.8786797,44.9497475 L39.2928932,43.5355339 Z" transform="translate(-10 -10)"/>
</svg>
