<svg xmlns="http://www.w3.org/2000/svg" width="20" height="20" viewBox="0 0 20 20">
  <g fill="none" fill-rule="evenodd">
    <rect width="20" height="20"/>
    <rect width="16" height="16" x="2" y="2"/>
    <path fill="#7F7F7F" d="M11,18 C14.3137085,18 17,15.3137085 17,12 C17.5522847,12 18,11.5522847 18,11 L18,8 C18,7.44771525 17.5522847,7 17,7 L16.7101213,7 C15.8495721,4.10851105 13.1710206,2 10,2 C6.82897936,2 4.15042787,4.10851105 3.28987868,7 L3,7 C2.44771525,7 2,7.44771525 2,8 L2,11 C2,11.5522847 2.44771525,12 3,12 L4,12 L4,9 C4,5.6862915 6.6862915,3 10,3 C13.3137085,3 16,5.6862915 16,9 L16,12 C16,14.7614237 13.7614237,17 11,17 L9,17 L9,18 L11,18 Z"/>
  </g>
</svg>
