<svg xmlns="http://www.w3.org/2000/svg" width="20" height="20" viewBox="0 0 20 20">
  <g fill="none" fill-rule="evenodd">
    <rect width="20" height="20"/>
    <rect width="16" height="16" x="2" y="2"/>
    <path fill="#7F7F7F" fill-rule="nonzero" d="M10,9 C11.6568542,9 13,7.65685425 13,6 C13,4.34314575 11.6568542,3 10,3 C8.34314575,3 7,4.34314575 7,6 C7,7.65685425 8.34314575,9 10,9 Z M10,10 C7.790861,10 6,8.209139 6,6 C6,3.790861 7.790861,2 10,2 C12.209139,2 14,3.790861 14,6 C14,8.209139 12.209139,10 10,10 Z"/>
    <path fill="#7F7F7F" fill-rule="nonzero" d="M17,17 C17,13.1340068 13.8659932,10 10,10 C6.13400675,10 3,13.1340068 3,17 L17,17 Z M18,18 L2,18 L2,17 C2,12.581722 5.581722,9 10,9 C14.418278,9 18,12.581722 18,17 L18,18 Z"/>
  </g>
</svg>
