<svg xmlns="http://www.w3.org/2000/svg" xmlns:xlink="http://www.w3.org/1999/xlink" width="392" height="160" viewBox="0 0 392 160">
  <defs>
    <rect id="3-a" width="392" height="160" rx="4"/>
  </defs>
  <g fill="none" fill-rule="evenodd">
    <mask id="3-b" fill="#fff">
      <use xlink:href="#3-a"/>
    </mask>
    <use fill="#008FF2" xlink:href="#3-a"/>
    <g mask="url(#3-b)">
      <g transform="translate(20 40)">
        <rect width="80" height="80"/>
        <rect width="60" height="60" x="10" y="10"/>
        <path fill="#FFF" fill-rule="nonzero" d="M42,38 L42,42 L47,42 C48.1045695,42 49,42.8954305 49,44 C49,45.1045695 48.1045695,46 47,46 L42,46 L42,52 C42,53.1045695 41.1045695,54 40,54 C38.8954305,54 38,53.1045695 38,52 L38,46 L33,46 C31.8954305,46 31,45.1045695 31,44 C31,42.8954305 31.8954305,42 33,42 L38,42 L38,38 L33,38 C31.8954305,38 31,37.1045695 31,36 C31,34.8954305 31.8954305,34 33,34 L35.1715729,34 L31.5857864,30.4142136 C30.8047379,29.633165 30.8047379,28.366835 31.5857864,27.5857864 C32.366835,26.8047379 33.633165,26.8047379 34.4142136,27.5857864 L40,33.1715729 L45.5857864,27.5857864 C46.366835,26.8047379 47.633165,26.8047379 48.4142136,27.5857864 C49.1952621,28.366835 49.1952621,29.633165 48.4142136,30.4142136 L44.8284271,34 L47,34 C48.1045695,34 49,34.8954305 49,36 C49,37.1045695 48.1045695,38 47,38 L42,38 Z"/>
        <circle cx="40" cy="40" r="30" stroke="#FFF" stroke-width="4"/>
        <circle cx="40" cy="40" r="22" stroke="#FFF" stroke-width="2"/>
      </g>
    </g>
    <g mask="url(#3-b)" opacity=".1">
      <g transform="translate(272)">
        <rect width="160" height="160"/>
        <rect width="120" height="120" x="20" y="20"/>
        <path fill="#FFF" fill-rule="nonzero" d="M84,76 L84,84 L94,84 C96.209139,84 98,85.790861 98,88 C98,90.209139 96.209139,92 94,92 L84,92 L84,104 C84,106.209139 82.209139,108 80,108 C77.790861,108 76,106.209139 76,104 L76,92 L66,92 C63.790861,92 62,90.209139 62,88 C62,85.790861 63.790861,84 66,84 L76,84 L76,76 L66,76 C63.790861,76 62,74.209139 62,72 C62,69.790861 63.790861,68 66,68 L70.3431458,68 L63.1715729,60.8284271 C61.6094757,59.26633 61.6094757,56.73367 63.1715729,55.1715729 C64.73367,53.6094757 67.26633,53.6094757 68.8284271,55.1715729 L80,66.3431458 L91.1715729,55.1715729 C92.73367,53.6094757 95.26633,53.6094757 96.8284271,55.1715729 C98.3905243,56.73367 98.3905243,59.26633 96.8284271,60.8284271 L89.6568542,68 L94,68 C96.209139,68 98,69.790861 98,72 C98,74.209139 96.209139,76 94,76 L84,76 Z"/>
        <circle cx="80" cy="80" r="60" stroke="#FFF" stroke-width="8"/>
        <circle cx="80" cy="80" r="44" stroke="#FFF" stroke-width="4"/>
      </g>
    </g>
  </g>
</svg>
