<svg xmlns="http://www.w3.org/2000/svg" width="48" height="48" viewBox="0 0 48 48">
  <g fill="none" fill-rule="evenodd">
    <rect width="48" height="48"/>
    <circle cx="24" cy="18" r="4" fill="#FBB03B"/>
    <path fill="#FBB03B" d="M15.5694232,26.6830583 C17.6936073,24.8943528 20.5038033,24 24.0000113,24 C27.4962057,24 30.3063934,24.8943458 32.4305746,26.6830375 L32.430582,26.6830288 C32.7916132,26.9870393 33,27.4349408 33,27.9069217 L33,31.2 C33,31.6418278 32.6418278,32 32.2,32 L15.8,32.0000038 C15.3581722,32.0000038 15,31.6418316 15,31.2000038 C15,31.2000025 15,31.2000013 15,31.2 L15.0000097,27.906939 C15.000012,27.434963 15.2083968,26.9870668 15.5694232,26.6830583 Z"/>
    <path fill="#333" fill-rule="nonzero" d="M13,2 C11.8954305,2 11,2.8954305 11,4 L11,44 C11,45.1045695 11.8954305,46 13,46 L35,46 C36.1045695,46 37,45.1045695 37,44 L37,4 C37,2.8954305 36.1045695,2 35,2 L13,2 Z M13,0 L35,0 C37.209139,0 39,1.790861 39,4 L39,44 C39,46.209139 37.209139,48 35,48 L13,48 C10.790861,48 9,46.209139 9,44 L9,4 C9,1.790861 10.790861,0 13,0 Z"/>
    <rect width="6" height="2" x="21" y="3" fill="#333" rx="1"/>
    <rect width="28" height="2" x="10" y="6" fill="#333"/>
    <path fill="#333" fill-rule="nonzero" d="M24,43 C24.5522847,43 25,42.5522847 25,42 C25,41.4477153 24.5522847,41 24,41 C23.4477153,41 23,41.4477153 23,42 C23,42.5522847 23.4477153,43 24,43 Z M24,45 C22.3431458,45 21,43.6568542 21,42 C21,40.3431458 22.3431458,39 24,39 C25.6568542,39 27,40.3431458 27,42 C27,43.6568542 25.6568542,45 24,45 Z"/>
    <rect width="28" height="2" x="10" y="36" fill="#333"/>
  </g>
</svg>
