<svg xmlns="http://www.w3.org/2000/svg" width="16" height="16" viewBox="0 0 16 16">
  <g fill="none" fill-rule="evenodd" transform="translate(-2 -2)">
    <rect width="20" height="20"/>
    <path fill="#333" d="M14.1213203,6.87867966 L15.1213203,6.87867966 L15.1213203,4.87867966 C15.1213203,3.22182541 13.7781746,1.87867966 12.1213203,1.87867966 C10.4644661,1.87867966 9.12132034,3.22182541 9.12132034,4.87867966 L9.12132034,10.8786797 C9.12132034,12.5355339 10.4644661,13.8786797 12.1213203,13.8786797 L12.1213203,12.8786797 C11.0167508,12.8786797 10.1213203,11.9832492 10.1213203,10.8786797 L10.1213203,4.87867966 C10.1213203,3.77411016 11.0167508,2.87867966 12.1213203,2.87867966 C13.2258898,2.87867966 14.1213203,3.77411016 14.1213203,4.87867966 L14.1213203,6.87867966 Z" transform="rotate(45 12.121 7.879)"/>
    <path fill="#333" d="M5.87867966,13.1213203 L4.87867966,13.1213203 L4.87867966,15.1213203 C4.87867966,16.7781746 6.22182541,18.1213203 7.87867966,18.1213203 C9.53553391,18.1213203 10.8786797,16.7781746 10.8786797,15.1213203 L10.8786797,9.12132034 C10.8786797,7.46446609 9.53553391,6.12132034 7.87867966,6.12132034 L7.87867966,7.12132034 C8.98324916,7.12132034 9.87867966,8.01675084 9.87867966,9.12132034 L9.87867966,15.1213203 C9.87867966,16.2258898 8.98324916,17.1213203 7.87867966,17.1213203 C6.77411016,17.1213203 5.87867966,16.2258898 5.87867966,15.1213203 L5.87867966,13.1213203 Z" transform="rotate(45 7.879 12.121)"/>
  </g>
</svg>
