<svg xmlns="http://www.w3.org/2000/svg" width="30" height="30" viewBox="0 0 30 30">
  <g fill="none" fill-rule="evenodd">
	<path fill="#00528C" d="M21.1795108 15.3385126C21.1980298 16.2378763 21.2903595 17.1360026 21.4565 18.0230271 20.6873006 17.7689334 19.9060528 17.5615372 19.117185 17.4008384L21.1795108 15.3385126zM8.82048921 14.6614874C8.8019702 13.7621237 8.70964045 12.8639974 8.54349997 11.9769729 9.3126994 12.2310666 10.0939472 12.4384628 10.882815 12.5991616L8.82048921 14.6614874z"/>
	<path fill="#008FF2" d="M26.5546778,4.03786973 C20.1732055,10.4193421 9.82679452,10.4193421 3.44532215,4.03786973 L2.55650078,3.14904836 C2.39287328,2.98542086 2.12758069,2.98542086 1.9639532,3.14904836 L0.18631045,4.92669111 C0.0226829535,5.0903186 0.0226829535,5.35561119 0.18631045,5.51923869 L1.07513182,6.40806006 C8.76562416,14.0985524 21.2343758,14.0985524 28.9248682,6.40806006 L29.8136895,5.51923869 C29.977317,5.35561119 29.977317,5.0903186 29.8136895,4.92669111 L28.0360468,3.14904836 C27.8724193,2.98542086 27.6071267,2.98542086 27.4434992,3.14904836 L26.5546778,4.03786973 Z"/>
	<path fill="#008FF2" d="M4.92669111.18631045L3.14904836 1.9639532C2.98542086 2.12758069 2.98542086 2.39287328 3.14904836 2.55650078L4.03786973 3.44532215C7.19321181 6.60066422 11.3703176 8.11150248 15.5041397 7.97783691L19.8576263 3.62435034C15.4121125 5.56121166 10.0444004 4.71147215 6.40806006 1.07513182L5.51923869.18631045C5.35561119.0226829534 5.0903186.0226829534 4.92669111.18631045zM25.9621303 3.44532215L26.8509516 2.55650078C27.0145791 2.39287328 27.0145791 2.12758069 26.8509516 1.9639532L25.0733089.18631045C24.9096814.0226829535 24.6443888.0226829535 24.4807613.18631045L16.7833875 7.88368427C20.1373687 7.49751648 23.38939 6.01806244 25.9621303 3.44532215zM1.07513182 23.5919399C8.76562416 15.9014476 21.2343758 15.9014476 28.9248682 23.5919399L29.8136895 24.4807613C29.977317 24.6443888 29.977317 24.9096814 29.8136895 25.0733089L28.0360468 26.8509516C27.8724193 27.0145791 27.6071267 27.0145791 27.4434992 26.8509516L26.5546778 25.9621303C20.1732055 19.5806579 9.82679452 19.5806579 3.44532215 25.9621303L2.55650078 26.8509516C2.39287328 27.0145791 2.12758069 27.0145791 1.9639532 26.8509516L.18631045 25.0733089C.0226829535 24.9096814.0226829535 24.6443888.18631045 24.4807613L1.07513182 23.5919399z"/>
	<path fill="#008FF2" d="M23.5919399 28.9248682L24.4807613 29.8136895C24.6443888 29.977317 24.9096814 29.977317 25.0733089 29.8136895L26.8509516 28.0360468C27.0145791 27.8724193 27.0145791 27.6071267 26.8509516 27.4434992L25.9621303 26.5546778C22.8067882 23.3993358 18.6296824 21.8884975 14.4958603 22.0221631L10.1423737 26.3756497C14.5878875 24.4387883 19.9555996 25.2885278 23.5919399 28.9248682zM4.92669111 29.8136895L3.14904836 28.0360468C2.98542086 27.8724193 2.98542086 27.6071267 3.14904836 27.4434992L4.03786973 26.5546778C6.61061002 23.9819376 9.8626313 22.5024835 13.2166125 22.1163157L5.51923869 29.8136895C5.35561119 29.977317 5.0903186 29.977317 4.92669111 29.8136895zM12.2355037 17.1719487L16.4440701 12.9633823C14.9251582 13.0698337 13.3966671 13.0081089 11.8888638 12.7782079L5.19383311 19.4732387C7.40851001 18.2684086 9.79809906 17.501312 12.2355037 17.1719487zM18.1111362 17.2217921L24.8061669 10.5267613C22.59149 11.7315914 20.2019009 12.498688 17.7644963 12.8280513L13.5559299 17.0366177C15.0748418 16.9301663 16.6033329 16.9918911 18.1111362 17.2217921z"/>
	<path fill="#00528C" d="M26.7815987 20.6988172C25.0408154 17.4223118 24.905499 13.516686 26.3756497 10.1423737L22.0221631 14.4958603C21.9803825 15.7879926 22.0992758 17.0843538 22.3788429 18.3524177 23.9154001 18.9430587 25.3952435 19.7251919 26.7815987 20.6988172zM3.21840129 9.30118279C4.95918462 12.5776882 5.09450097 16.483314 3.62435034 19.8576263L7.97783691 15.5041397C8.01961751 14.2120074 7.90072425 12.9156462 7.62115712 11.6475823 6.08459993 11.0569413 4.60475652 10.2748081 3.21840129 9.30118279z"/>
  </g>
</svg>